<svg xmlns="http://www.w3.org/2000/svg" version="1.1" xmlns:xlink="http://www.w3.org/1999/xlink" xmlns:svgjs="http://svgjs.dev/svgjs" width="128" height="128" viewBox="0 0 128 128"><g transform="matrix(0.8046875,0,0,0.8046875,12.221578124999994,21.825625890050986)"><svg viewBox="0 0 96 78" data-background-color="#ffffff" preserveAspectRatio="xMidYMid meet" height="104" width="128" xmlns="http://www.w3.org/2000/svg" xmlns:xlink="http://www.w3.org/1999/xlink"><g id="tight-bounds" transform="matrix(1,0,0,1,0.25950000000000273,0.30815451024373886)"><svg viewBox="0 0 95.481 77.38369097951254" height="77.38369097951254" width="95.481"><g><svg viewBox="0 0 95.481 77.38369097951254" height="77.38369097951254" width="95.481"><g><svg viewBox="0 0 95.481 77.38369097951254" height="77.38369097951254" width="95.481"><g id="textblocktransform"><svg viewBox="0 0 95.481 77.38369097951254" height="77.38369097951254" width="95.481" id="textblock"><g><svg viewBox="0 0 95.481 77.38369097951254" height="77.38369097951254" width="95.481"><g><svg viewBox="0 0 95.481 77.38369097951254" height="77.38369097951254" width="95.481"><g><svg xmlns="http://www.w3.org/2000/svg" xmlns:xlink="http://www.w3.org/1999/xlink" version="1.1" x="0" y="0" viewBox="5 25.16322225237681 79.99980742401914 64.83677774762319" enable-background="new 0 0 90 90" xml:space="preserve" height="77.38369097951254" width="95.481" class="icon-icon-0" data-fill-palette-color="accent" id="icon-0"><path fill-rule="evenodd" clip-rule="evenodd" d="M35.736 51.714C36.228 42.912 22.017 42.806 11.541 48.403 22.827 2.392 102.658 29.099 81.426 90H5C20.873 80.655 34.818 67.983 35.736 51.714M56.647 58.226C60.82 57.017 55.038 46.807 59.159 45.414 64.331 43.658 66.564 58.799 71.43 56.301 76.015 53.975 75.26 46.596 69.901 40.946 55.066 25.3 26.444 22.428 17.284 42.926 31.336 37.184 42.397 45.372 38.674 53.574 38.514 53.92 38.594 55.023 39.139 55.184 42.529 56.261 43.898 48.23 47.449 48.482 51.915 48.774 52.354 59.462 56.647 58.226" fill="#3393e8" data-fill-palette-color="accent"></path></svg></g></svg></g></svg></g></svg></g></svg></g></svg></g><defs></defs></svg><rect width="95.481" height="77.38369097951254" fill="none" stroke="none" visibility="hidden"></rect></g></svg></g></svg>