<svg xmlns="http://www.w3.org/2000/svg" version="1.1" xmlns:xlink="http://www.w3.org/1999/xlink" xmlns:svgjs="http://svgjs.dev/svgjs" width="200" height="40" viewBox="0 0 2000 444"><g transform="matrix(1,0,0,1,-1.2121212121212466,-2.338368154126101)"><svg viewBox="0 0 396 88" data-background-color="#ffffff" preserveAspectRatio="xMidYMid meet" height="444" width="2000" xmlns="http://www.w3.org/2000/svg" xmlns:xlink="http://www.w3.org/1999/xlink"><g id="tight-bounds" transform="matrix(1,0,0,1,0.2400000000000091,0.4634603548718417)"><svg viewBox="0 0 395.52 87.07307929025632" height="87.07307929025632" width="395.52"><g><svg viewBox="0 0 538.2379811715965 118.49220876714683" height="87.07307929025632" width="395.52"><g transform="matrix(1,0,0,1,142.7179811715965,33.59147154875574)"><svg viewBox="0 0 395.52 51.30926566963535" height="51.30926566963535" width="395.52"><g id="textblocktransform"><svg viewBox="0 0 395.52 51.30926566963535" height="51.30926566963535" width="395.52" id="textblock"><g><svg viewBox="0 0 395.52 51.30926566963535" height="51.30926566963535" width="395.52"><g transform="matrix(1,0,0,1,0,0)"><svg width="395.52" viewBox="0.5 -37.5 297.53 38.6" height="51.30926566963535" data-palette-color="#000000"><path d="M25.75-27.7L19.75-2.45Q19.5-1.6 20.08-1.28 20.65-0.95 21.25-0.95L21.25-0.95 21.25 0 9.5 0 9.5-0.95Q9.95-0.95 10.45-1.18 10.95-1.4 10.95-2L10.95-2Q10.95-2.25 10.9-2.4L10.9-2.4 1.5-36.05Q1.4-36.55 0.5-36.55L0.5-36.55 0.5-37.5 10.25-37.5 10.25-36.55Q9.65-36.55 9.35-36.23 9.05-35.9 9.1-35.55L9.1-35.55 15.35-10 21.15-35.05Q21.2-35.2 21.2-35.45L21.2-35.45Q21.2-36.05 20.65-36.3 20.1-36.55 19.6-36.55L19.6-36.55 19.6-37.5 31.5-37.5 31.5-36.55Q30.9-36.55 30.3-36.23 29.7-35.9 29.95-35.05L29.95-35.05 35.65-11.2 40.55-35.55Q40.65-35.85 40.08-36.2 39.5-36.55 38.85-36.55L38.85-36.55 38.85-37.5 49.5-37.5 49.5-36.55Q48.65-36.55 48.5-36.05L48.5-36.05 39.25-2.4Q39.2-2.25 39.2-2L39.2-2Q39.2-1.4 39.68-1.18 40.15-0.95 40.6-0.95L40.6-0.95 40.6 0 29.7 0 29.7-0.95Q30.25-0.95 30.83-1.28 31.4-1.6 31.2-2.45L31.2-2.45 25.75-27.7ZM64.25 0.6Q60.55 0.6 57.72-0.98 54.9-2.55 53.32-5.3 51.75-8.05 51.75-11.5L51.75-11.5Q51.75-14.9 53.32-17.7 54.9-20.5 57.75-22.13 60.6-23.75 64.25-23.75L64.25-23.75Q67.75-23.75 70.6-22.18 73.45-20.6 75.1-17.82 76.75-15.05 76.75-11.5L76.75-11.5Q76.75-8.4 75.27-5.63 73.8-2.85 70.95-1.13 68.1 0.6 64.25 0.6L64.25 0.6ZM64.25-5.15Q67.2-5.15 69.02-6.88 70.85-8.6 70.85-11.35L70.85-11.35Q70.85-14.2 69.02-16.05 67.2-17.9 64.25-17.9L64.25-17.9Q61.5-17.9 59.65-16.07 57.8-14.25 57.8-11.5L57.8-11.5Q57.8-8.6 59.65-6.88 61.5-5.15 64.25-5.15L64.25-5.15ZM95.25-24.5L96.2-24.5 96.2-16.45 95.25-16.45Q95.25-16.8 95.09-17.25 94.95-17.7 94.7-17.75L94.7-17.75 94.34-17.75Q92.8-17.75 91.22-16.88 89.65-16 88.62-14.58 87.59-13.15 87.59-11.55L87.59-11.55 87.59-1.5Q87.59-1.25 87.97-1.1 88.34-0.95 88.7-0.95L88.7-0.95 88.7 0 80.3 0 80.3-0.95Q80.65-0.95 81.02-1.1 81.4-1.25 81.4-1.5L81.4-1.5 81.4-21.5Q81.4-21.75 81.02-21.9 80.65-22.05 80.3-22.05L80.3-22.05 80.3-23 87.59-23 87.59-20.85Q88.95-22.1 90.84-22.85 92.75-23.6 94.65-23.6L94.65-23.6 94.7-23.6 94.75-23.6Q95-23.6 95.12-23.9 95.25-24.2 95.25-24.5L95.25-24.5ZM113.14-12.5L121.69-1.2Q121.89-0.95 122.89-0.95L122.89-0.95 122.89 0 113.74 0 113.74-0.95Q114.34-0.95 114.34-1.2L114.34-1.2Q114.34-1.3 114.14-1.6L114.14-1.6 109.39-8.15 106.69-5 106.69-1.5Q106.69-1.25 107.07-1.1 107.44-0.95 107.79-0.95L107.79-0.95 107.79 0 99.24 0 99.24-0.95Q99.59-0.95 99.97-1.1 100.34-1.25 100.34-1.5L100.34-1.5 100.34-36Q100.34-36.25 99.97-36.4 99.59-36.55 99.24-36.55L99.24-36.55 99.24-37.5 107.79-37.5 107.79-36.55Q107.44-36.55 107.07-36.4 106.69-36.25 106.69-36L106.69-36 106.69-13.9 113.29-21.5 113.39-21.7Q113.39-22.05 112.49-22.05L112.49-22.05 112.49-23 122.49-23 122.49-22.05 122.04-22.05Q121.39-22.05 121.19-21.85L121.19-21.85 113.14-12.5ZM163.84-27.7L157.84-2.45Q157.59-1.6 158.16-1.28 158.74-0.95 159.34-0.95L159.34-0.95 159.34 0 147.59 0 147.59-0.95Q148.04-0.95 148.54-1.18 149.04-1.4 149.04-2L149.04-2Q149.04-2.25 148.99-2.4L148.99-2.4 139.59-36.05Q139.49-36.55 138.59-36.55L138.59-36.55 138.59-37.5 148.34-37.5 148.34-36.55Q147.74-36.55 147.44-36.23 147.14-35.9 147.19-35.55L147.19-35.55 153.44-10 159.24-35.05Q159.29-35.2 159.29-35.45L159.29-35.45Q159.29-36.05 158.74-36.3 158.19-36.55 157.69-36.55L157.69-36.55 157.69-37.5 169.59-37.5 169.59-36.55Q168.99-36.55 168.39-36.23 167.79-35.9 168.04-35.05L168.04-35.05 173.74-11.2 178.64-35.55Q178.74-35.85 178.16-36.2 177.59-36.55 176.94-36.55L176.94-36.55 176.94-37.5 187.59-37.5 187.59-36.55Q186.74-36.55 186.59-36.05L186.59-36.05 177.34-2.4Q177.29-2.25 177.29-2L177.29-2Q177.29-1.4 177.76-1.18 178.24-0.95 178.69-0.95L178.69-0.95 178.69 0 167.79 0 167.79-0.95Q168.34-0.95 168.91-1.28 169.49-1.6 169.29-2.45L169.29-2.45 163.84-27.7ZM217.44-23L217.44-22.05Q217.09-22.05 216.71-21.9 216.34-21.75 216.34-21.5L216.34-21.5 216.34-1.5Q216.34-1.25 216.71-1.1 217.09-0.95 217.44-0.95L217.44-0.95 217.44 0 210.04 0 210.04-2.75Q206.89 0.65 202.09 0.65L202.09 0.65Q198.44 0.65 195.66-0.83 192.89-2.3 191.36-5.05 189.84-7.8 189.84-11.45L189.84-11.45Q189.84-15 191.51-17.78 193.19-20.55 195.99-22.08 198.79-23.6 202.09-23.6L202.09-23.6Q206.89-23.6 210.04-19.9L210.04-19.9 210.04-23 217.44-23ZM202.84-4.65Q204.89-4.65 206.51-5.58 208.14-6.5 209.04-8.03 209.94-9.55 209.94-11.3L209.94-11.3Q209.94-14.3 207.96-16.25 205.99-18.2 202.84-18.2L202.84-18.2Q199.79-18.2 197.81-16.3 195.84-14.4 195.84-11.45L195.84-11.45Q195.84-8.35 197.86-6.5 199.89-4.65 202.84-4.65L202.84-4.65ZM248.43-23L248.43-22.05Q247.43-22.05 247.18-21.65L247.18-21.65 238.13-2.25Q237.98-1.9 237.98-1.65L237.98-1.65Q237.98-1.25 238.31-1.1 238.63-0.95 238.98-0.95L238.98-0.95 238.98 0 228.88 0 228.88-0.95Q229.23-0.95 229.58-1.13 229.93-1.3 229.93-1.75L229.93-1.75Q229.93-2 229.78-2.3L229.78-2.3 221.43-21.6Q221.28-22.05 220.23-22.05L220.23-22.05 220.23-23 228.93-23 228.93-22.05Q228.33-22.05 228.16-21.78 227.98-21.5 228.13-21.15L228.13-21.15 234.28-6.8 240.78-21.2Q240.83-21.25 240.83-21.35L240.83-21.35Q240.83-21.6 240.46-21.83 240.08-22.05 239.53-22.05L239.53-22.05 239.53-23 248.43-23ZM262.88-24.05Q266.73-24.05 269.53-22.38 272.33-20.7 273.78-17.85 275.23-15 275.23-11.55L275.23-11.55Q275.23-10.5 275.08-9.45L275.08-9.45 256.78-9.45Q256.98-7.05 258.88-5.7 260.78-4.35 263.43-4.35L263.43-4.35Q265.23-4.35 266.46-4.85 267.68-5.35 268.63-6.35L268.63-6.35Q268.73-6.55 268.73-6.6L268.73-6.6Q268.73-6.8 268.58-7.03 268.43-7.25 268.28-7.35L268.28-7.35 268.88-8.1 274.43-3.75 273.88-3Q273.13-3.45 272.83-3.1L272.83-3.1Q269.33 1.1 263.43 1.1L263.43 1.1Q259.63 1.1 256.73-0.58 253.83-2.25 252.26-5.08 250.68-7.9 250.68-11.35L250.68-11.35Q250.68-15 252.23-17.9 253.78-20.8 256.56-22.43 259.33-24.05 262.88-24.05L262.88-24.05ZM256.83-14.1L269.23-14.1Q269.03-16.15 267.16-17.57 265.28-19 262.93-19L262.93-19Q260.58-19 258.88-17.57 257.18-16.15 256.83-14.1L256.83-14.1ZM288.73 0.75Q286.18 0.75 283.8-0.3 281.43-1.35 279.03-3.3L279.03-3.3Q278.93-3.4 278.78-3.4L278.78-3.4Q278.38-3.4 277.93-2.95L277.93-2.95 277.23-3.55 282.23-9.25 282.93-8.6Q282.73-8.35 282.6-8 282.48-7.65 282.68-7.45L282.68-7.45Q284.33-5.95 285.75-5.23 287.18-4.5 288.73-4.5L288.73-4.5Q292.58-4.5 292.58-7.05L292.58-7.05Q292.58-8.2 291.4-8.83 290.23-9.45 287.48-10.2L287.48-10.2Q283.93-11.15 282.33-12.68 280.73-14.2 280.73-16.85L280.73-16.85Q280.73-20 282.78-21.98 284.83-23.95 288.38-23.95L288.38-23.95Q290.18-23.95 291.63-23.4 293.08-22.85 295.13-21.45L295.13-21.45Q295.18-21.4 295.33-21.4L295.33-21.4Q295.58-21.4 295.83-21.55 296.08-21.7 296.18-21.85L296.18-21.85 296.93-21.2 292.43-16.1 291.73-16.7Q291.93-16.9 292-17.23 292.08-17.55 291.88-17.75L291.88-17.75Q290.98-18.45 290.15-18.8 289.33-19.15 288.33-19.15L288.33-19.15Q287.28-19.15 286.68-18.75 286.08-18.35 286.08-17.55L286.08-17.55Q286.08-16.9 286.43-16.5 286.78-16.1 287.7-15.7 288.63-15.3 290.53-14.7L290.53-14.7Q294.03-13.65 296.03-11.78 298.03-9.9 298.03-7.15L298.03-7.15Q298.03-3.1 295.48-1.18 292.93 0.75 288.73 0.75L288.73 0.75Z" opacity="1" transform="matrix(1,0,0,1,0,0)" fill="#000000" class="wordmark-text-0" data-fill-palette-color="primary" id="text-0"></path></svg></g></svg></g></svg></g></svg></g><g><svg viewBox="0 0 118.49220876714683 118.49220876714683" height="118.49220876714683" width="118.49220876714683"><g><svg></svg></g><g id="icon-0"><svg viewBox="0 0 118.49220876714683 118.49220876714683" height="118.49220876714683" width="118.49220876714683"><g><path d="M0 59.246c0-32.721 26.525-59.246 59.246-59.246 32.721 0 59.246 26.525 59.246 59.246 0 32.721-26.525 59.246-59.246 59.246-32.721 0-59.246-26.525-59.246-59.246zM59.246 113.865c30.165 0 54.619-24.454 54.619-54.619 0-30.165-24.454-54.619-54.619-54.619-30.165 0-54.619 24.454-54.619 54.619 0 30.165 24.454 54.619 54.619 54.619z" data-fill-palette-color="accent" fill="#3393e8" stroke="transparent"></path><ellipse rx="58.653643339737684" ry="58.653643339737684" cx="59.24610438357342" cy="59.24610438357342" fill="#3393e8" stroke="transparent" stroke-width="0" fill-opacity="1" data-fill-palette-color="accent"></ellipse></g><g transform="matrix(1,0,0,1,25.136391815812132,31.60148967757291)"><svg viewBox="0 0 68.21942513552257 55.28922941200101" height="55.28922941200101" width="68.21942513552257"><g><svg xmlns="http://www.w3.org/2000/svg" xmlns:xlink="http://www.w3.org/1999/xlink" version="1.1" x="0" y="0" viewBox="5 25.16322225237681 79.99980742401914 64.83677774762319" enable-background="new 0 0 90 90" xml:space="preserve" height="55.28922941200101" width="68.21942513552257" class="icon-dxe-0" data-fill-palette-color="quaternary" id="dxe-0"><path fill-rule="evenodd" clip-rule="evenodd" d="M35.736 51.714C36.228 42.912 22.017 42.806 11.541 48.403 22.827 2.392 102.658 29.099 81.426 90H5C20.873 80.655 34.818 67.983 35.736 51.714M56.647 58.226C60.82 57.017 55.038 46.807 59.159 45.414 64.331 43.658 66.564 58.799 71.43 56.301 76.015 53.975 75.26 46.596 69.901 40.946 55.066 25.3 26.444 22.428 17.284 42.926 31.336 37.184 42.397 45.372 38.674 53.574 38.514 53.92 38.594 55.023 39.139 55.184 42.529 56.261 43.898 48.23 47.449 48.482 51.915 48.774 52.354 59.462 56.647 58.226" fill="#000000" data-fill-palette-color="quaternary"></path></svg></g></svg></g></svg></g></svg></g></svg></g><defs></defs></svg><rect width="395.52" height="87.07307929025632" fill="none" stroke="none" visibility="hidden"></rect></g></svg></g></svg>